<?xml version="1.0" standalone="no"?>
<!DOCTYPE svg PUBLIC "-//W3C//DTD SVG 20010904//EN"
 "http://www.w3.org/TR/2001/REC-SVG-20010904/DTD/svg10.dtd">
<svg version="1.0" xmlns="http://www.w3.org/2000/svg"
 width="260.000000pt" height="260.000000pt" viewBox="0 0 260.000000 260.000000"
 preserveAspectRatio="xMidYMid meet">
<metadata>
Created by potrace 1.14, written by Peter Selinger 2001-2017
</metadata>
<g transform="translate(0.000000,260.000000) scale(0.100000,-0.100000)"
fill="#000000" stroke="none">
<path d="M0 1736 c0 -682 3 -865 13 -869 9 -4 9 -6 0 -6 -10 -1 -13 -90 -13
-408 0 -373 2 -407 18 -420 16 -12 16 -13 -1 -7 -11 4 -17 1 -17 -9 0 -13 12
-16 62 -16 37 1 66 6 70 12 6 9 8 9 8 0 0 -9 166 -12 715 -12 516 -1 715 2
715 10 0 8 4 8 13 0 10 -7 161 -10 513 -8 l499 2 3 42 c3 39 1 42 -27 48 -16
3 -32 12 -34 19 -4 10 1 12 16 8 20 -5 21 -4 7 13 -14 17 -14 17 7 4 12 -7 24
-20 26 -29 3 -8 5 61 5 155 0 120 -3 172 -11 177 -9 6 -9 8 0 8 10 0 13 230
13 1075 l0 1075 -1300 0 -1300 0 0 -864z m1508 235 c23 -5 46 -11 49 -15 4 -4
-9 -78 -28 -166 l-36 -160 26 -5 c220 -41 334 -112 403 -252 29 -59 32 -75 32
-152 0 -106 -16 -176 -61 -262 -66 -128 -183 -230 -317 -276 -32 -11 -52 -23
-45 -26 8 -3 -16 -6 -53 -6 -56 -1 -66 -4 -62 -16 4 -8 1 -15 -5 -15 -6 0 -11
4 -11 9 0 6 -9 9 -19 8 -17 -1 -18 -3 -4 -24 14 -21 14 -23 -1 -17 -11 4 -16
0 -16 -14 0 -12 -4 -24 -10 -27 -5 -3 -10 1 -10 9 0 8 -6 19 -14 23 -8 4 -16
19 -18 33 -5 38 -21 30 -30 -15 -4 -22 -13 -66 -20 -97 l-12 -58 -138 0 c-79
0 -138 4 -138 9 0 6 7 40 16 78 11 48 12 69 4 71 -7 3 -4 9 7 18 17 12 16 13
-7 15 -118 5 -240 47 -312 107 -18 15 -29 21 -24 15 4 -8 1 -13 -9 -13 -12 0
-14 4 -6 19 8 14 6 23 -9 36 -11 10 -25 33 -32 50 -8 23 -16 32 -27 28 -13 -4
-13 -3 -2 5 10 7 11 17 3 43 -40 129 -11 301 70 424 74 112 255 211 466 254
29 6 66 11 81 11 33 0 28 -11 66 166 14 64 24 118 22 121 -11 10 -201 -27
-249 -50 -79 -36 -101 -71 -96 -153 l4 -64 -38 0 c-158 0 -204 169 -69 254 66
42 149 66 316 90 43 6 312 -3 363 -13z m-1371 -1059 c9 2 18 -1 19 -7 5 -13
-48 -16 -63 -3 -21 17 -15 30 7 18 11 -6 28 -10 37 -8z m-62 -16 c8 -7 12 -16
9 -19 -5 -5 46 -21 59 -19 4 1 7 -2 7 -8 0 -5 -11 -9 -25 -8 -14 1 -25 6 -25
10 0 4 -7 4 -17 1 -11 -4 -14 -3 -9 5 4 8 0 12 -11 13 -11 0 -13 3 -5 6 10 4
10 8 1 19 -15 18 -2 18 16 0z m118 -54 c-13 -2 -23 -8 -23 -13 0 -5 -5 -9 -11
-9 -8 0 -9 4 0 13 6 8 8 16 6 19 -3 3 7 3 22 -1 25 -5 26 -6 6 -9z m92 -10
c-3 -3 -11 0 -18 7 -9 10 -8 11 6 5 10 -3 15 -9 12 -12z m55 -12 c12 -8 11
-10 -7 -10 -12 0 -25 5 -28 10 -8 13 15 13 35 0z m197 -36 c-3 -3 -12 -4 -19
-1 -8 3 -5 6 6 6 11 1 17 -2 13 -5z m47 0 c20 -8 21 -34 1 -34 -9 0 -12 6 -9
15 5 11 2 13 -10 9 -9 -3 -16 -1 -16 5 0 12 11 14 34 5z m-409 -64 c3 -6 -1
-7 -9 -4 -18 7 -21 14 -7 14 6 0 13 -4 16 -10z m455 -4 c0 -3 -4 -8 -10 -11
-5 -3 -10 -1 -10 4 0 6 5 11 10 11 6 0 10 -2 10 -4z m1090 -36 c11 -8 9 -9
-12 -8 -16 1 -28 6 -28 10 0 11 22 10 40 -2z m-1423 -6 c-3 -3 -12 -4 -19 -1
-8 3 -5 6 6 6 11 1 17 -2 13 -5z m38 -4 c3 -5 2 -10 -4 -10 -5 0 -13 5 -16 10
-3 6 -2 10 4 10 5 0 13 -4 16 -10z m1425 -1 c0 -8 5 -8 15 1 9 8 15 9 15 2 0
-16 -16 -23 -34 -16 -18 7 -22 24 -6 24 6 0 10 -5 10 -11z m-1124 -20 c2 -4
11 -6 18 -3 8 3 17 0 21 -6 6 -9 10 -9 16 1 6 10 9 11 9 2 0 -21 -4 -27 -22
-28 -9 -1 -15 2 -13 6 5 8 -30 19 -62 19 -13 0 -23 4 -23 9 0 11 49 11 56 0z
m937 -16 c-5 -13 -2 -15 11 -10 11 4 25 -1 38 -13 12 -11 17 -20 10 -20 -6 0
-14 5 -17 10 -4 6 -15 8 -25 5 -10 -3 -22 -1 -25 6 -6 8 -10 7 -16 -2 -7 -11
-12 -12 -29 -1 -11 7 -20 8 -20 3 0 -5 -9 -13 -21 -16 -12 -4 -18 -13 -15 -20
3 -9 0 -12 -9 -8 -8 3 -12 9 -9 14 3 5 -7 9 -22 9 -15 0 -25 3 -21 6 3 3 8 5
11 5 3 0 26 8 51 19 25 11 51 17 58 14 8 -3 20 2 27 10 15 19 31 11 23 -11z
m93 0 c-7 -8 -76 9 -71 17 3 5 21 3 40 -3 19 -6 33 -12 31 -14z m404 7 c0 -5
-2 -10 -4 -10 -3 0 -8 5 -11 10 -3 6 -1 10 4 10 6 0 11 -4 11 -10z m-1254 -32
c8 2 14 -2 14 -8 0 -6 5 -8 10 -5 6 3 10 3 10 -2 0 -4 -26 -9 -58 -9 -31 -1
-52 1 -45 3 7 2 9 11 6 20 -4 11 -2 14 5 9 8 -4 12 0 12 11 1 17 2 16 16 -2 8
-11 22 -19 30 -17z m28 23 c3 -5 -6 -8 -20 -8 -19 0 -22 2 -13 8 18 11 26 11
33 0z m981 -1 c-3 -5 -13 -10 -21 -10 -8 0 -14 5 -14 10 0 6 9 10 21 10 11 0
17 -4 14 -10z m163 -2 c12 0 22 -5 22 -10 0 -14 -70 -3 -84 13 -8 9 -5 10 14
4 14 -4 35 -7 48 -7z m-1825 -5 c-7 -2 -19 -2 -25 0 -7 3 -2 5 12 5 14 0 19
-2 13 -5z m221 -32 c-4 -3 -9 0 -11 7 -3 6 -11 12 -19 12 -9 0 -12 5 -9 11 5
7 14 4 26 -7 11 -9 16 -20 13 -23z m1311 18 c-4 -5 -14 -8 -23 -8 -15 1 -15 2
1 6 9 2 14 9 11 15 -4 7 -2 8 5 4 6 -4 9 -12 6 -17z m55 6 c10 -12 10 -15 -4
-15 -9 0 -16 7 -16 15 0 8 2 15 4 15 2 0 9 -7 16 -15z m120 5 c0 -5 -7 -7 -15
-4 -8 4 -15 8 -15 10 0 2 7 4 15 4 8 0 15 -4 15 -10z m-1230 -10 c0 -5 -2 -10
-4 -10 -3 0 -8 5 -11 10 -3 6 -1 10 4 10 6 0 11 -4 11 -10z m1405 0 c3 -5 2
-10 -4 -10 -5 0 -13 5 -16 10 -3 6 -2 10 4 10 5 0 13 -4 16 -10z m-1115 -9 c0
-5 -13 -9 -30 -9 -16 1 -30 5 -30 10 0 4 14 8 30 8 17 0 30 -4 30 -9z m37 -13
c-3 -8 -6 -5 -6 6 -1 11 2 17 5 13 3 -3 4 -12 1 -19z m1007 5 l31 -14 -30 6
c-36 7 -42 7 -77 2 -16 -2 -28 -1 -28 4 0 20 62 22 104 2z m121 7 c3 -5 -3
-10 -15 -10 -12 0 -18 5 -15 10 3 6 10 10 15 10 5 0 12 -4 15 -10z m-2060 -10
c3 -5 1 -10 -4 -10 -6 0 -11 5 -11 10 0 6 2 10 4 10 3 0 8 -4 11 -10z m399 -6
c9 -25 2 -26 -17 -4 -13 16 -14 20 -3 20 8 0 17 -7 20 -16z m1136 -9 c0 -8 12
-12 35 -11 19 0 34 -3 32 -9 -1 -5 -9 -9 -17 -7 -8 2 -22 3 -30 4 -8 0 -20 5
-26 10 -8 5 -14 3 -18 -7 -3 -8 -11 -15 -18 -14 -10 0 -10 2 0 6 20 8 14 25
-7 18 -17 -5 -37 16 -26 27 10 10 75 -5 75 -17z m605 4 c3 -4 1 -10 -5 -14 -5
-3 -10 -1 -10 6 0 6 -8 9 -20 6 -12 -3 -20 0 -20 8 0 13 46 9 55 -6z m-1269
-25 c-3 -8 0 -14 6 -14 6 0 9 -3 5 -6 -9 -9 -32 9 -33 28 -1 10 4 14 13 11 8
-3 12 -12 9 -19z m1329 15 c4 -6 5 -12 3 -14 -7 -7 -48 7 -48 16 0 13 37 11
45 -2z m-538 -14 c3 -9 3 -19 -1 -22 -8 -9 -37 18 -30 28 8 14 24 11 31 -6z
m67 -22 c8 -19 2 -16 -25 13 -23 25 -23 26 -2 13 13 -7 25 -19 27 -26z m528
24 c7 -7 35 -13 63 -12 40 0 50 -3 51 -18 1 -10 0 -11 -3 -3 -3 9 -18 13 -49
12 -24 0 -44 -3 -44 -5 0 -3 7 -13 17 -23 13 -15 14 -18 2 -18 -21 0 -38 20
-32 36 3 8 -5 18 -21 24 -14 5 -26 12 -26 15 0 10 29 5 42 -8z m-282 -13 c0
-17 -10 -22 -31 -17 -28 8 -24 31 6 29 14 0 25 -6 25 -12z m485 6 c4 -6 11 -7
17 -4 7 4 8 2 4 -4 -10 -17 -33 -15 -40 3 -6 17 9 21 19 5z m-2075 -4 c0 -3
-7 -12 -16 -20 -16 -17 -34 -21 -34 -8 0 6 9 12 48 31 1 0 2 -1 2 -3z m450
-18 c0 -13 -23 -5 -28 10 -2 7 2 10 12 6 9 -3 16 -11 16 -16z m610 0 c0 -6 -6
-5 -15 2 -8 7 -15 14 -15 16 0 2 7 1 15 -2 8 -4 15 -11 15 -16z m586 2 c8 0
14 -4 14 -10 0 -10 -35 -9 -46 2 -3 4 -2 12 2 19 6 10 9 10 12 1 2 -7 10 -12
18 -12z m394 10 c0 -5 -4 -10 -10 -10 -5 0 -10 5 -10 10 0 6 5 10 10 10 6 0
10 -4 10 -10z m-1960 -19 c0 -4 -7 -8 -15 -8 -16 0 -20 9 -9 20 8 8 24 -1 24
-12z m860 3 c0 -8 -5 -12 -10 -9 -6 4 -8 11 -5 16 9 14 15 11 15 -7z m1230 0
c0 -2 -7 -4 -15 -4 -8 0 -15 4 -15 10 0 5 7 7 15 4 8 -4 15 -8 15 -10z m-2550
-4 c0 -5 -4 -10 -9 -10 -6 0 -13 5 -16 10 -3 6 1 10 9 10 9 0 16 -4 16 -10z
m495 0 c3 -5 -1 -10 -9 -10 -9 0 -16 5 -16 10 0 6 4 10 9 10 6 0 13 -4 16 -10z
m1668 -4 c4 4 11 -5 16 -20 6 -14 18 -26 27 -26 15 0 14 4 -6 25 -13 14 -21
28 -17 31 4 4 9 -1 13 -10 3 -9 10 -16 16 -16 5 0 6 5 3 10 -3 6 -1 10 5 10 7
0 9 -7 6 -16 -4 -11 0 -14 16 -12 15 2 23 -2 23 -12 0 -10 8 -14 25 -12 28 2
58 -13 47 -25 -5 -4 -13 -1 -18 7 -8 11 -12 12 -16 3 -3 -10 -13 -9 -41 2 -22
10 -38 12 -42 6 -3 -6 -11 -6 -20 -1 -8 6 -27 10 -42 10 -15 0 -30 5 -34 11
-5 9 1 10 21 5 25 -6 27 -5 15 9 -8 9 -20 13 -33 9 -17 -5 -18 -4 -6 9 9 9 18
12 25 6 6 -5 14 -6 17 -3z m-94 -14 c-7 -3 -17 -9 -20 -14 -4 -6 -15 -8 -25
-5 -17 4 -17 6 4 12 12 4 22 11 22 16 0 5 8 5 17 2 14 -5 14 -8 2 -11z m281 8
c0 -5 -7 -10 -15 -10 -8 0 -15 5 -15 10 0 6 7 10 15 10 8 0 15 -4 15 -10z
m-390 -4 c0 -2 -7 -7 -16 -10 -8 -3 -12 -2 -9 4 6 10 25 14 25 6z m-180 -10
c0 -11 -19 -15 -25 -6 -3 5 1 10 9 10 9 0 16 -2 16 -4z m590 -37 c0 -14 -17
-10 -23 5 -4 10 -1 13 9 9 7 -3 14 -9 14 -14z m-1985 1 c3 -5 1 -10 -4 -10 -6
0 -11 5 -11 10 0 6 2 10 4 10 3 0 8 -4 11 -10z m-132 -7 c-7 -2 -19 -2 -25 0
-7 3 -2 5 12 5 14 0 19 -2 13 -5z m106 -12 c13 -11 20 -25 16 -30 -10 -18 -25
-12 -18 7 5 14 3 15 -8 5 -16 -16 -29 -17 -29 -3 0 6 7 10 16 10 14 0 14 3 4
15 -17 21 -7 19 19 -4z m514 -18 c-4 -11 -9 -11 -24 3 -10 9 -16 20 -13 25 8
13 43 -13 37 -28z m-853 13 c0 -2 -7 -7 -16 -10 -8 -3 -12 -2 -9 4 6 10 25 14
25 6z m38 -16 c-7 -11 -16 -20 -20 -20 -11 0 -10 9 5 25 18 21 29 18 15 -5z
m68 -9 c-4 -6 -12 -11 -18 -11 -7 0 -7 4 1 13 6 8 9 16 7 19 -1 3 1 2 7 -2 5
-5 6 -13 3 -19z m144 19 c0 -5 -4 -10 -10 -10 -5 0 -10 5 -10 10 0 6 5 10 10
10 6 0 10 -4 10 -10z m40 -11 c0 -6 -4 -7 -10 -4 -5 3 -10 11 -10 16 0 6 5 7
10 4 6 -3 10 -11 10 -16z m195 3 c-3 -3 -11 0 -18 7 -9 10 -8 11 6 5 10 -3 15
-9 12 -12z m1920 8 c3 -5 -1 -10 -9 -10 -9 0 -16 5 -16 10 0 6 4 10 9 10 6 0
13 -4 16 -10z m114 1 c11 -1 11 -4 1 -16 -7 -8 -16 -12 -21 -9 -5 3 -9 0 -9
-5 0 -6 -4 -11 -10 -11 -5 0 -10 9 -10 19 0 11 -6 22 -12 24 -7 3 1 3 17 2 17
-2 36 -4 44 -4z m-1921 -17 c6 3 16 -2 23 -12 13 -15 12 -16 -3 -4 -11 9 -18
10 -23 2 -5 -8 -11 -5 -21 7 -10 13 -13 14 -14 4 0 -8 -3 -12 -6 -8 -3 3 -3
11 1 17 5 8 10 8 20 0 8 -7 18 -9 23 -6z m192 6 c0 -5 -2 -10 -4 -10 -3 0 -8
5 -11 10 -3 6 -1 10 4 10 6 0 11 -4 11 -10z m-115 -10 c-3 -5 -14 -10 -23 -9
-14 0 -13 2 3 9 27 11 27 11 20 0z m465 6 c0 -2 -7 -7 -16 -10 -8 -3 -12 -2
-9 4 6 10 25 14 25 6z m-1020 -26 c0 -5 -5 -10 -11 -10 -5 0 -7 5 -4 10 3 6 8
10 11 10 2 0 4 -4 4 -10z m160 6 c0 -2 -7 -7 -16 -10 -8 -3 -12 -2 -9 4 6 10
25 14 25 6z m-310 -15 c0 -6 -4 -13 -10 -16 -5 -3 -10 1 -10 9 0 9 5 16 10 16
6 0 10 -4 10 -9z m355 -1 c-3 -5 -12 -10 -18 -10 -7 0 -6 4 3 10 19 12 23 12
15 0z m49 -6 c3 -8 2 -12 -4 -9 -6 3 -10 10 -10 16 0 14 7 11 14 -7z m581 6
c3 -5 12 -7 20 -3 8 3 15 3 15 0 0 -13 -28 -13 -45 -1 -10 8 -14 14 -8 14 7 0
14 -4 18 -10z m485 0 c0 -5 -2 -10 -4 -10 -3 0 -8 5 -11 10 -3 6 -1 10 4 10 6
0 11 -4 11 -10z m-1332 -16 c4 -4 -1 -4 -10 -1 -12 4 -18 1 -18 -8 0 -8 -4
-15 -10 -15 -5 0 -10 2 -10 4 0 2 -3 11 -6 19 -4 11 2 14 21 11 15 -1 30 -6
33 -10z m1658 6 c8 0 14 -4 14 -9 0 -11 -49 -1 -57 12 -4 7 0 8 11 4 10 -4 24
-7 32 -7z m-69 -16 c-3 -3 -12 -4 -19 -1 -8 3 -5 6 6 6 11 1 17 -2 13 -5z
m833 -4 c0 -5 -2 -10 -4 -10 -3 0 -8 5 -11 10 -3 6 -1 10 4 10 6 0 11 -4 11
-10z m-1530 -26 c0 -8 -4 -14 -10 -14 -5 0 -10 5 -10 10 0 6 -8 10 -17 10 -15
0 -15 2 -4 9 18 12 41 3 41 -15z m885 16 c3 -5 1 -10 -4 -10 -6 0 -11 5 -11
10 0 6 2 10 4 10 3 0 8 -4 11 -10z m-755 -4 c0 -2 -7 -7 -16 -10 -8 -3 -12 -2
-9 4 6 10 25 14 25 6z m-1070 -16 c0 -5 -2 -10 -4 -10 -3 0 -8 5 -11 10 -3 6
-1 10 4 10 6 0 11 -4 11 -10z m390 -11 c0 -5 -7 -9 -15 -9 -8 0 -15 7 -15 15
0 9 6 12 15 9 8 -4 15 -10 15 -15z m184 5 c3 -8 2 -12 -4 -9 -6 3 -10 10 -10
16 0 14 7 11 14 -7z m1230 0 c5 -13 4 -14 -7 -6 -8 7 -18 8 -22 4 -5 -4 -5 -1
-1 6 10 17 23 15 30 -4z m-1484 -4 c0 -5 -5 -10 -11 -10 -5 0 -7 5 -4 10 3 6
8 10 11 10 2 0 4 -4 4 -10z m535 -10 c-3 -5 -12 -10 -18 -10 -7 0 -6 4 3 10
19 12 23 12 15 0z m65 -18 c0 -15 -2 -15 -10 -2 -13 20 -13 33 0 25 6 -3 10
-14 10 -23z m370 18 c0 -5 -2 -10 -4 -10 -3 0 -8 5 -11 10 -3 6 -1 10 4 10 6
0 11 -4 11 -10z m-1303 -6 c-3 -3 -12 -4 -19 -1 -8 3 -5 6 6 6 11 1 17 -2 13
-5z m58 -4 c-3 -5 -12 -10 -18 -10 -7 0 -6 4 3 10 19 12 23 12 15 0z m523 -15
c-3 -3 -9 2 -12 12 -6 14 -5 15 5 6 7 -7 10 -15 7 -18z m397 -3 c-6 -7 -34 11
-29 19 3 5 11 3 19 -4 7 -6 12 -13 10 -15z m-810 8 c3 -5 1 -10 -4 -10 -6 0
-11 5 -11 10 0 6 2 10 4 10 3 0 8 -4 11 -10z m90 0 c3 -5 2 -10 -4 -10 -5 0
-13 5 -16 10 -3 6 -2 10 4 10 5 0 13 -4 16 -10z m650 -8 c-3 -3 -11 0 -18 7
-9 10 -8 11 6 5 10 -3 15 -9 12 -12z m1475 2 c0 -2 -7 -4 -15 -4 -8 0 -15 4
-15 10 0 5 7 7 15 4 8 -4 15 -8 15 -10z m34 0 c3 -8 2 -12 -4 -9 -6 3 -10 10
-10 16 0 14 7 11 14 -7z m-400 -10 c3 -8 2 -12 -4 -9 -6 3 -10 10 -10 16 0 14
7 11 14 -7z m74 10 c25 -7 30 -21 7 -21 -8 0 -15 4 -15 9 0 5 -3 7 -7 5 -5 -3
-17 -1 -28 4 l-20 8 20 0 c11 0 30 -2 43 -5z m114 -44 c5 0 8 -6 8 -12 0 -7
-14 -14 -30 -15 -34 -3 -37 3 -13 29 16 18 16 18 0 12 -11 -4 -17 -1 -17 8 0
27 14 29 29 3 9 -14 19 -25 23 -25z m-2242 32 c0 -5 -7 -9 -15 -9 -8 0 -12 4
-9 9 3 4 9 8 15 8 5 0 9 -4 9 -8z m2190 -32 c0 -5 -4 -10 -10 -10 -5 0 -10 5
-10 10 0 6 5 10 10 10 6 0 10 -4 10 -10z m285 -1 c11 -17 -1 -21 -15 -4 -8 9
-8 15 -2 15 6 0 14 -5 17 -11z m-1665 -3 c0 -3 -4 -8 -10 -11 -5 -3 -10 -1
-10 4 0 6 5 11 10 11 6 0 10 -2 10 -4z m1026 -22 c8 3 14 1 14 -4 0 -6 -7 -10
-16 -10 -24 0 -55 20 -49 31 4 5 13 2 22 -6 9 -9 22 -14 29 -11z m289 17 c3
-5 1 -12 -4 -15 -5 -3 -11 1 -15 9 -6 16 9 21 19 6z m-165 -11 c0 -5 -2 -10
-4 -10 -3 0 -8 5 -11 10 -3 6 -1 10 4 10 6 0 11 -4 11 -10z m334 -6 c3 -8 2
-13 -3 -9 -5 3 -11 -1 -14 -7 -2 -7 -8 -10 -12 -6 -4 4 -2 14 5 23 15 19 16
19 24 -1z m-129 -37 c6 -5 3 -7 -6 -4 -9 3 -22 0 -28 -6 -15 -15 -14 1 2 17 6
8 14 11 17 8 3 -4 10 -11 15 -15z m265 9 c0 -3 -4 -8 -10 -11 -5 -3 -10 -1
-10 4 0 6 5 11 10 11 6 0 10 -2 10 -4z m34 -21 c-4 -8 -8 -15 -10 -15 -2 0 -4
7 -4 15 0 8 4 15 10 15 5 0 7 -7 4 -15z m-44 -15 c0 -5 -4 -10 -9 -10 -6 0
-13 5 -16 10 -3 6 1 10 9 10 9 0 16 -4 16 -10z m-170 -30 c0 -5 -4 -10 -10
-10 -5 0 -10 5 -10 10 0 6 5 10 10 10 6 0 10 -4 10 -10z m40 -6 c0 -2 -7 -4
-15 -4 -8 0 -15 4 -15 10 0 5 7 7 15 4 8 -4 15 -8 15 -10z m70 2 c21 -8 28
-16 21 -20 -7 -4 -18 -2 -26 4 -8 6 -18 9 -23 6 -6 -3 -15 1 -22 9 -16 20 5
20 50 1z m77 -48 c-12 -13 -23 -20 -25 -16 -2 4 -9 5 -17 2 -7 -3 -15 -2 -18
3 -3 4 7 9 21 10 15 0 28 6 30 12 2 6 10 11 17 11 10 0 7 -7 -8 -22z m73 -2
c0 -9 -8 -12 -27 -8 -25 5 -25 6 -8 13 29 11 35 10 35 -5z m-863 -13 c-9 -2
-15 -8 -13 -11 2 -4 -7 -8 -20 -8 -20 -2 -23 1 -13 12 6 8 23 13 38 13 17 -1
20 -3 8 -6z m630 -29 c-1 -2 -13 -1 -26 3 -16 4 -19 8 -10 14 12 7 45 -9 36
-17z"/>
<path d="M1109 1506 c-120 -42 -190 -104 -240 -211 -57 -121 -64 -319 -15
-418 25 -52 96 -132 96 -109 0 18 18 14 37 -8 23 -26 42 -25 47 3 14 69 41
193 58 267 10 47 37 171 59 275 22 105 42 198 45 208 7 23 -7 22 -87 -7z"/>
<path d="M1451 1422 c-12 -59 -47 -226 -77 -372 -30 -146 -57 -273 -60 -284
-4 -11 -2 -16 4 -12 6 3 13 2 17 -4 11 -18 50 -11 111 20 102 51 185 152 230
281 15 41 19 82 19 174 0 108 -2 125 -25 169 -32 64 -94 111 -170 129 -26 6
-26 5 -49 -101z"/>
<path d="M1328 634 c-3 -5 -2 -18 2 -28 3 -11 9 -15 12 -10 3 5 2 18 -2 28 -3
11 -9 15 -12 10z"/>
</g>
</svg>
